<svg width="1366" height="881" viewBox="0 0 1366 881" fill="none" xmlns="http://www.w3.org/2000/svg">
<path d="M-46.1056 20.643C-44.3161 -15.5633 -14.439 -44 21.8115 -44H1353C1390.56 -44 1421 -13.5554 1421 24V629.079V774.551C1421 794.978 1411.82 814.323 1395.99 827.238L1390.55 831.676C1387.48 834.18 1384.2 836.411 1380.74 838.343L1350.88 855.041L1327.51 867.222C1323.45 869.338 1319.19 871.039 1314.79 872.299L1302.07 875.937C1297.7 877.19 1293.2 878 1288.67 878.355L1254.84 881H1209.11L1169.98 877.821L1135.43 870.404L1085.63 855.041L1052.61 841.796L997.728 815.307L908.221 783.382C903.543 781.713 898.696 780.562 893.767 779.949L790.411 767.097H672.016H621.203L535.837 773.984L461.142 777.163L371.711 783.52L254.608 792.132C251.043 792.395 247.463 792.375 243.901 792.075L142.545 783.52L56.6707 776.103L-3.93513 763.827C-21.7213 760.224 -37.3296 749.661 -47.2864 734.489L-66.8398 704.694C-74.742 692.653 -78.6169 678.414 -77.9059 664.028L-46.1056 20.643Z" fill="#F7C04A"/>
</svg>
