<svg width="44" height="44" viewBox="0 0 44 44" fill="none" xmlns="http://www.w3.org/2000/svg">
<path d="M22 7.33325C23.9449 7.33325 25.8102 8.10587 27.1854 9.48114C28.5607 10.8564 29.3333 12.7217 29.3333 14.6666C29.3333 16.6115 28.5607 18.4768 27.1854 19.852C25.8102 21.2273 23.9449 21.9999 22 21.9999C20.0551 21.9999 18.1898 21.2273 16.8145 19.852C15.4393 18.4768 14.6666 16.6115 14.6666 14.6666C14.6666 12.7217 15.4393 10.8564 16.8145 9.48114C18.1898 8.10587 20.0551 7.33325 22 7.33325ZM22 25.6666C30.1033 25.6666 36.6666 28.9483 36.6666 32.9999V36.6666H7.33331V32.9999C7.33331 28.9483 13.8966 25.6666 22 25.6666Z" fill="#B3B3B3"/>
</svg>
