<svg width="31" height="31" viewBox="0 0 31 31" fill="none" xmlns="http://www.w3.org/2000/svg">
<path d="M0.00622074 31L2.10182 23.2996C0.720984 20.9325 -0.00448048 18.2404 2.082e-05 15.5C2.082e-05 6.93935 6.93937 0 15.5 0C24.0607 0 31 6.93935 31 15.5C31 24.0606 24.0607 31 15.5 31C12.7608 31.0044 10.0698 30.2795 7.70352 28.8997L0.00622074 31ZM9.90606 8.2274C9.7059 8.23982 9.51031 8.29254 9.33102 8.38239C9.16287 8.47761 9.00938 8.59664 8.87531 8.7358C8.68931 8.91094 8.58392 9.06284 8.47077 9.21009C7.8979 9.95564 7.58976 10.8708 7.59502 11.811C7.59812 12.5705 7.79652 13.3098 8.10652 14.0011C8.74047 15.3992 9.78362 16.8795 11.1616 18.2512C11.4933 18.5814 11.8172 18.9131 12.166 19.2215C13.8762 20.7273 15.9143 21.8132 18.118 22.3928L18.9999 22.5277C19.2867 22.5432 19.5734 22.5215 19.8617 22.5075C20.3131 22.4842 20.7539 22.362 21.1529 22.1495C21.3558 22.0449 21.5539 21.9311 21.7465 21.8085C21.7465 21.8085 21.8132 21.7651 21.9403 21.669C22.1495 21.514 22.2782 21.4039 22.4518 21.2226C22.5804 21.0893 22.692 20.9327 22.7773 20.7545C22.8982 20.5018 23.0191 20.0198 23.0687 19.6183C23.1059 19.3114 23.095 19.144 23.0904 19.0402C23.0842 18.8743 22.9462 18.7023 22.7959 18.6294L21.8938 18.2249C21.8938 18.2249 20.5453 17.6374 19.7222 17.2623C19.6354 17.2245 19.5424 17.203 19.4479 17.1988C19.3418 17.1879 19.2347 17.1998 19.1336 17.2338C19.0325 17.2677 18.9399 17.3229 18.862 17.3956V17.3925C18.8542 17.3925 18.7504 17.4809 17.6297 18.8387C17.5654 18.9251 17.4768 18.9904 17.3752 19.0263C17.2736 19.0622 17.1636 19.067 17.0593 19.0402C16.9583 19.0132 16.8594 18.979 16.7633 18.9379C16.5711 18.8573 16.5044 18.8263 16.3727 18.7689L16.3649 18.7658C15.4782 18.3787 14.6572 17.8558 13.9314 17.2158C13.7361 17.0453 13.5548 16.8593 13.3688 16.6795C12.759 16.0956 12.2275 15.4349 11.7878 14.7141L11.6963 14.5669C11.6306 14.4679 11.5775 14.3612 11.5382 14.2491C11.4793 14.0213 11.6328 13.8384 11.6328 13.8384C11.6328 13.8384 12.0094 13.4261 12.1846 13.2029C12.3304 13.0174 12.4665 12.8244 12.5922 12.6247C12.7751 12.3302 12.8325 12.028 12.7364 11.7939C12.3024 10.7337 11.8529 9.67819 11.391 8.63039C11.2995 8.42269 11.0283 8.27389 10.7818 8.24444C10.6981 8.23514 10.6144 8.22584 10.5307 8.21964C10.3226 8.2093 10.114 8.21292 9.90606 8.2274Z" fill="#B3B3B3"/>
</svg>
